<svg width="167" height="34" viewBox="0 0 167 34" fill="none" xmlns="http://www.w3.org/2000/svg">
<g clip-path="url(#clip0_928_767)">
<path d="M10.5091 22.0761L0.0768216 21.9998L5.71505 11.1725" fill="#CC0202"/>
<path d="M16.2298 10.5437L5.70382 11.1736L10.5089 22.0773" fill="#AD0000"/>
<path d="M11.4434 0.0818805L5.70379 11.1739L16.2298 10.5441" fill="#C93535"/>
<path d="M16.2304 10.5458L11.3555 0.0830078L21.2567 0.15537" fill="#EC2027"/>
<path d="M26.0091 11.3216L16.2311 10.4549L21.2567 0.152877" fill="#F70B0B"/>
<path d="M26.0085 11.3223L16.2305 10.4556L20.2077 20.9854" fill="#EB2329"/>
<path d="M25.7679 32.5457L21.209 21.3652L31.3336 22.0097" fill="#AD0000"/>
<path d="M21.2601 21.2782L15.2251 31.8751L25.8133 32.549" fill="#CC0202"/>
<path d="M21.1869 21.3633L31.3334 22.0091L26.9287 11.192L21.1869 21.3633Z" fill="#C93535"/>
<path d="M37.5569 10.9298L26.9126 11.1378L31.1628 22.2986" fill="#EC2027"/>
<path d="M26.9972 11.1967L37.4649 10.9774L33.3521 0.444871L26.9972 11.1967Z" fill="#F70B0B"/>
<path d="M33.2617 0.44043L37.4516 11.1551L43.1442 1.06943L33.2617 0.44043Z" fill="#EB2329"/>
</g>
<path d="M45.9803 25.056L42.4261 25.03L47.9562 9.38244L52.2304 9.41368L57.5235 25.1404L53.9694 25.1144L50.1284 12.9833L50.0058 12.9824L45.9803 25.056ZM45.8032 18.8883L54.1983 18.9496L54.1794 21.5386L45.7843 21.4773L45.8032 18.8883ZM59.4116 25.1542L59.5263 9.467L65.7154 9.51223C66.9001 9.52089 67.9096 9.7402 68.744 10.1702C69.5835 10.5951 70.22 11.1946 70.6536 11.9689C71.0922 12.7382 71.3078 13.6411 71.3002 14.6777C71.2926 15.7194 71.0613 16.614 70.6065 17.3613C70.1517 18.1036 69.4964 18.6708 68.6407 19.0629C67.7901 19.455 66.7622 19.6466 65.5571 19.6378L61.4132 19.6075L61.4327 16.9419L65.0404 16.9683C65.6736 16.9729 66.2002 16.89 66.6202 16.7194C67.0402 16.5488 67.3536 16.2907 67.5604 15.9449C67.7723 15.5992 67.8802 15.1685 67.8839 14.6527C67.8877 14.1319 67.7863 13.6919 67.5795 13.333C67.3779 12.974 67.0658 12.7011 66.6433 12.5141C66.2259 12.3221 65.6981 12.2238 65.0598 12.2191L62.8232 12.2028L62.7283 25.1784L59.4116 25.1542ZM67.9355 18.0772L71.7822 25.2446L68.1208 25.2178L64.3584 18.0511L67.9355 18.0772ZM72.1094 9.55896L75.8243 9.58612L79.3521 16.3682L79.5053 16.3693L83.1317 9.63952L86.8467 9.66667L81.0508 19.7664L81.0102 25.312L77.7165 25.288L77.7571 19.7423L72.1094 9.55896ZM98.3479 9.75073L101.665 9.77497L101.59 19.9624C101.582 21.1063 101.301 22.1052 100.749 22.9591C100.201 23.813 99.4378 24.4764 98.4589 24.9493C97.4801 25.4171 96.3422 25.6462 95.0451 25.6368C93.743 25.6272 92.606 25.3815 91.6341 24.8994C90.6622 24.4123 89.9088 23.7378 89.3738 22.8759C88.8388 22.0141 88.5755 21.0112 88.5838 19.8674L88.6583 9.67991L91.9749 9.70415L91.9026 19.6082C91.8982 20.2057 92.0245 20.7377 92.2816 21.2043C92.5437 21.6709 92.9138 22.0388 93.3919 22.3078C93.8699 22.5769 94.4281 22.7137 95.0665 22.7184C95.7099 22.7231 96.27 22.5944 96.7469 22.3323C97.2288 22.0703 97.6017 21.7079 97.8655 21.2451C98.1345 20.7824 98.2711 20.2523 98.2755 19.6548L98.3479 9.75073Z" fill="black"/>
<path d="M107.31 25.5785L105.74 25.567L109.34 15.7883L111.049 15.8008L114.506 25.6311L112.935 25.6196L110.222 17.5758L110.146 17.5752L107.31 25.5785ZM107.602 21.741L112.695 21.7782L112.686 23.0229L107.593 22.9857L107.602 21.741ZM118.785 25.8108C118.073 25.8056 117.461 25.6399 116.95 25.3138C116.441 24.9846 116.052 24.5333 115.782 23.96C115.512 23.3867 115.379 22.7314 115.385 21.9942C115.39 21.2473 115.535 20.5893 115.82 20.0201C116.105 19.4476 116.504 19.0021 117.017 18.6835C117.53 18.3649 118.133 18.2081 118.826 18.2132C119.384 18.2172 119.881 18.3246 120.317 18.5353C120.753 18.7427 121.103 19.0325 121.369 19.4047C121.637 19.7769 121.795 20.2106 121.843 20.7056L120.45 20.6954C120.376 20.3502 120.202 20.0521 119.93 19.8011C119.66 19.5502 119.297 19.4231 118.841 19.4198C118.442 19.4168 118.092 19.5196 117.79 19.7281C117.492 19.9333 117.258 20.2285 117.089 20.6134C116.921 20.9952 116.834 21.4478 116.831 21.9712C116.827 22.5074 116.905 22.9708 117.065 23.3613C117.224 23.7519 117.452 24.0552 117.747 24.2712C118.046 24.4872 118.398 24.5967 118.803 24.5997C119.074 24.6016 119.32 24.554 119.541 24.4566C119.765 24.3561 119.953 24.2123 120.105 24.0251C120.259 23.8379 120.368 23.6121 120.43 23.3476L121.823 23.3578C121.769 23.833 121.611 24.2563 121.35 24.6279C121.089 24.9994 120.74 25.2905 120.304 25.5011C119.872 25.7118 119.365 25.815 118.785 25.8108ZM125.476 25.8741C125.01 25.8707 124.589 25.7814 124.214 25.6063C123.839 25.428 123.542 25.1721 123.324 24.8386C123.11 24.5051 123.004 24.0973 123.008 23.6154C123.011 23.2005 123.093 22.8596 123.255 22.5927C123.416 22.3258 123.633 22.1151 123.906 21.9607C124.178 21.8063 124.482 21.6904 124.818 21.6131C125.153 21.5357 125.495 21.4776 125.844 21.4386C126.284 21.3908 126.642 21.3519 126.917 21.322C127.192 21.2889 127.391 21.2345 127.516 21.1588C127.641 21.0831 127.705 20.9591 127.706 20.7868L127.706 20.7533C127.709 20.3352 127.593 20.0104 127.359 19.7788C127.128 19.5473 126.781 19.4299 126.318 19.4265C125.836 19.423 125.455 19.5271 125.176 19.7389C124.9 19.9476 124.708 20.1808 124.601 20.4385L123.258 20.1223C123.421 19.6766 123.657 19.3177 123.965 19.0455C124.277 18.7701 124.634 18.5716 125.037 18.4501C125.44 18.3253 125.864 18.2646 126.307 18.2678C126.601 18.27 126.912 18.3074 127.24 18.38C127.571 18.4494 127.88 18.5762 128.166 18.7602C128.455 18.9442 128.691 19.2061 128.874 19.5457C129.056 19.8822 129.146 20.3185 129.142 20.8547L129.106 25.7378L127.708 25.7276L127.715 24.7223L127.658 24.7218C127.564 24.9063 127.424 25.0872 127.237 25.2645C127.051 25.4419 126.812 25.5886 126.521 25.7046C126.23 25.8205 125.881 25.877 125.476 25.8741ZM125.796 24.7274C126.191 24.7303 126.53 24.6545 126.812 24.5002C127.097 24.3459 127.314 24.1432 127.463 23.8922C127.615 23.6379 127.692 23.3656 127.694 23.0752L127.701 22.1273C127.649 22.178 127.55 22.2251 127.403 22.2687C127.259 22.3092 127.094 22.3447 126.909 22.3752C126.724 22.4026 126.543 22.4284 126.368 22.4527C126.192 22.4737 126.045 22.4918 125.927 22.5069C125.649 22.54 125.395 22.5971 125.164 22.6784C124.937 22.7598 124.754 22.8781 124.616 23.0335C124.481 23.1857 124.412 23.3895 124.41 23.6448C124.408 23.9991 124.537 24.2681 124.797 24.452C125.057 24.6326 125.39 24.7244 125.796 24.7274ZM133.764 25.9155C133.171 25.9111 132.642 25.7557 132.178 25.4491C131.718 25.1393 131.357 24.701 131.096 24.1341C130.839 23.5641 130.713 22.8818 130.719 22.0871C130.724 21.2924 130.862 20.6135 131.131 20.0506C131.403 19.4876 131.773 19.0579 132.241 18.7612C132.71 18.4646 133.239 18.3185 133.829 18.3228C134.286 18.3262 134.652 18.4054 134.929 18.5607C135.208 18.7127 135.424 18.8898 135.576 19.092C135.731 19.2942 135.851 19.4723 135.936 19.6261L136.022 19.6267L136.049 15.9835L137.48 15.994L137.408 25.7985L136.011 25.7883L136.019 24.6441L135.899 24.6432C135.812 24.799 135.686 24.9768 135.522 25.1767C135.361 25.3766 135.139 25.5505 134.857 25.6985C134.575 25.8464 134.211 25.9188 133.764 25.9155ZM134.089 24.697C134.501 24.7 134.849 24.5941 135.135 24.3791C135.424 24.161 135.643 23.8578 135.793 23.4695C135.946 23.0812 136.024 22.6286 136.028 22.1115C136.032 21.6009 135.961 21.1535 135.817 20.7695C135.673 20.3854 135.46 20.0854 135.178 19.8695C134.895 19.6536 134.545 19.5441 134.127 19.541C133.696 19.5379 133.336 19.647 133.047 19.8683C132.758 20.0896 132.539 20.3928 132.389 20.7779C132.243 21.163 132.168 21.5982 132.164 22.0833C132.161 22.5748 132.231 23.0174 132.375 23.411C132.519 23.8046 132.734 24.1174 133.019 24.3493C133.308 24.578 133.665 24.6939 134.089 24.697ZM142.62 25.985C141.895 25.9797 141.272 25.8203 140.751 25.5069C140.233 25.1904 139.834 24.7486 139.554 24.1816C139.278 23.6114 139.142 22.945 139.148 22.1822C139.153 21.429 139.298 20.7662 139.583 20.1937C139.872 19.6213 140.271 19.1758 140.781 18.8572C141.294 18.5386 141.892 18.3817 142.575 18.3867C142.989 18.3898 143.391 18.4613 143.779 18.6014C144.168 18.7415 144.516 18.9595 144.823 19.2554C145.131 19.5512 145.372 19.9344 145.547 20.4049C145.723 20.8722 145.808 21.4393 145.803 22.1064L145.799 22.6138L139.954 22.5711L139.962 21.4987L144.404 21.5312C144.407 21.1546 144.333 20.8205 144.182 20.529C144.031 20.2342 143.817 20.0013 143.541 19.8301C143.267 19.6589 142.946 19.572 142.575 19.5693C142.173 19.5663 141.822 19.6627 141.52 19.8584C141.222 20.0509 140.99 20.3046 140.825 20.6193C140.663 20.9309 140.581 21.2703 140.578 21.6373L140.572 22.4751C140.569 22.9666 140.652 23.3853 140.822 23.7313C140.995 24.0772 141.237 24.3423 141.548 24.5265C141.86 24.7075 142.224 24.7996 142.643 24.8026C142.914 24.8046 143.161 24.7681 143.385 24.6931C143.609 24.615 143.803 24.4983 143.967 24.3431C144.131 24.1879 144.257 23.9957 144.345 23.7666L145.698 24.0206C145.587 24.4188 145.389 24.7668 145.106 25.0648C144.826 25.3596 144.475 25.5884 144.053 25.7513C143.633 25.911 143.156 25.9889 142.62 25.985ZM147.364 25.8712L147.417 18.5179L148.791 18.5279L148.783 19.7248L148.874 19.7254C149.03 19.3212 149.283 19.0071 149.632 18.783C149.982 18.5558 150.399 18.4439 150.884 18.4475C151.376 18.4511 151.787 18.569 152.117 18.8012C152.45 19.0334 152.695 19.3512 152.852 19.7545L152.929 19.7551C153.107 19.3638 153.388 19.053 153.773 18.8229C154.158 18.5895 154.615 18.4747 155.145 18.4786C155.812 18.4835 156.355 18.6965 156.773 19.1177C157.194 19.5389 157.402 20.1708 157.396 21.0133L157.36 25.9443L155.928 25.9338L155.963 21.1369C155.967 20.639 155.834 20.2774 155.564 20.052C155.295 19.8266 154.972 19.7125 154.595 19.7098C154.129 19.7064 153.766 19.8474 153.505 20.1327C153.244 20.4149 153.113 20.7794 153.109 21.2262L153.075 25.913L151.648 25.9026L151.684 21.0147C151.687 20.6157 151.565 20.2941 151.318 20.0497C151.071 19.8053 150.748 19.6817 150.349 19.6788C150.077 19.6768 149.826 19.7467 149.595 19.8887C149.368 20.0275 149.183 20.2224 149.041 20.4735C148.901 20.7246 148.831 21.0162 148.828 21.3481L148.795 25.8817L147.364 25.8712ZM159.9 28.7205C159.686 28.719 159.491 28.7 159.316 28.6636C159.141 28.6304 159.01 28.5943 158.924 28.5554L159.277 27.385C159.539 27.4572 159.771 27.4892 159.976 27.4811C160.18 27.473 160.361 27.3977 160.518 27.2553C160.679 27.1128 160.821 26.8792 160.945 26.5546L161.125 26.0676L158.489 18.5988L160.021 18.61L161.842 24.3301L161.919 24.3307L163.822 18.6378L165.359 18.649L162.268 26.9616C162.125 27.3436 161.944 27.6662 161.725 27.9295C161.506 28.1961 161.246 28.3952 160.945 28.5271C160.644 28.6589 160.295 28.7234 159.9 28.7205Z" fill="black"/>
<defs>
<clipPath id="clip0_928_767">
<rect width="43.1228" height="32.7272" fill="white" transform="translate(0.238281) rotate(0.418737)"/>
</clipPath>
</defs>
</svg>
