<svg width="154" height="130" viewBox="0 0 154 130" fill="none" xmlns="http://www.w3.org/2000/svg">
<g clip-path="url(#clip0_593_2)">
<path d="M50.0002 62.0832L21.9014 62.9857L35.9335 33.2325" fill="#CC0202"/>
<path d="M64.1818 30.4234L35.9058 33.2371L50.0019 62.0869" fill="#AD0000"/>
<path d="M50.1833 2.76053L35.9062 33.2371L64.1823 30.4234" fill="#C93535"/>
<path d="M64.1813 30.4289L49.9439 2.77368L76.6122 1.91718" fill="#EC2027"/>
<path d="M90.5958 31.4794L64.1748 30.1838L76.6133 1.91042" fill="#F70B0B"/>
<path d="M90.5937 31.4816L64.1727 30.186L76.0002 58.117" fill="#EB2329"/>
<path d="M92.1996 88.6543L78.7368 59.0332L106.067 59.6933" fill="#AD0000"/>
<path d="M78.8614 58.7936L63.7363 87.9681L92.3183 88.6584" fill="#CC0202"/>
<path d="M78.6782 59.0298L106.068 59.6913L93.0589 31.0324L78.6782 59.0298Z" fill="#C93535"/>
<path d="M121.646 29.1982L93.0068 30.8886L105.636 60.4896" fill="#EC2027"/>
<path d="M93.239 31.0378L121.402 29.3359L109.209 1.41213L93.239 31.0378Z" fill="#F70B0B"/>
<path d="M108.969 1.40918L121.389 29.8154L135.646 2.05351L108.969 1.40918Z" fill="#EB2329"/>
</g>
<path d="M5.09421 123.036L0.681095 123.004L7.54775 103.575L12.8549 103.613L19.4273 123.141L15.0142 123.109L10.2449 108.046L10.0927 108.045L5.09421 123.036ZM4.87435 115.378L15.2984 115.454L15.2749 118.669L4.85085 118.593L4.87435 115.378ZM21.7718 123.158L21.9141 103.68L29.5991 103.736C31.0701 103.746 32.3236 104.019 33.3597 104.553C34.4021 105.08 35.1924 105.825 35.7307 106.786C36.2754 107.741 36.5431 108.862 36.5336 110.15C36.5242 111.443 36.2371 112.554 35.6723 113.482C35.1075 114.404 34.2939 115.108 33.2314 115.595C32.1752 116.081 30.8989 116.319 29.4025 116.309L24.2571 116.271L24.2813 112.961L28.761 112.994C29.5472 113 30.2011 112.897 30.7226 112.685C31.2441 112.473 31.6332 112.152 31.89 111.723C32.1531 111.294 32.287 110.759 32.2917 110.119C32.2965 109.472 32.1705 108.926 31.9137 108.48C31.6633 108.034 31.2759 107.695 30.7512 107.463C30.233 107.225 29.5776 107.103 28.785 107.097L26.0078 107.077L25.8901 123.188L21.7718 123.158ZM32.3558 114.371L37.1321 123.27L32.5858 123.237L27.9141 114.338L32.3558 114.371ZM37.5384 103.794L42.1512 103.827L46.5316 112.249L46.7218 112.25L51.2247 103.894L55.8376 103.927L48.6408 116.468L48.5905 123.354L44.5008 123.324L44.5511 116.438L37.5384 103.794ZM70.1184 104.032L74.2367 104.062L74.1442 116.712C74.1338 118.132 73.7855 119.372 73.0993 120.432C72.4194 121.493 71.4717 122.317 70.2563 122.904C69.0409 123.485 67.628 123.769 66.0174 123.757C64.4006 123.745 62.9887 123.44 61.782 122.842C60.5753 122.237 59.6397 121.399 58.9754 120.329C58.3111 119.259 57.9841 118.014 57.9945 116.594L58.0869 103.944L62.2052 103.974L62.1153 116.272C62.1099 117.014 62.2668 117.674 62.5859 118.254C62.9114 118.833 63.371 119.29 63.9646 119.624C64.5582 119.958 65.2513 120.128 66.0439 120.134C66.8428 120.139 67.5384 119.98 68.1304 119.654C68.7289 119.329 69.1919 118.879 69.5195 118.304C69.8534 117.73 70.0231 117.071 70.0285 116.33L70.1184 104.032Z" fill="black"/>
<path d="M81.2483 123.618L79.2986 123.604L83.7686 111.462L85.8907 111.478L90.1828 123.684L88.233 123.669L84.864 113.682L84.7689 113.681L81.2483 123.618ZM81.6101 118.853L87.935 118.9L87.9237 120.445L81.5988 120.399L81.6101 118.853ZM95.4957 123.907C94.612 123.9 93.8526 123.695 93.2174 123.29C92.5863 122.881 92.103 122.321 91.7673 121.609C91.4317 120.897 91.2672 120.083 91.2739 119.168C91.2807 118.24 91.4611 117.423 91.815 116.717C92.1689 116.006 92.6644 115.453 93.3014 115.057C93.9384 114.661 94.6869 114.467 95.5468 114.473C96.2403 114.478 96.8576 114.611 97.3986 114.873C97.9397 115.13 98.375 115.49 98.7045 115.952C99.038 116.415 99.2342 116.953 99.2931 117.568L97.5633 117.555C97.4713 117.126 97.2561 116.756 96.9175 116.445C96.5829 116.133 96.1323 115.975 95.5656 115.971C95.0702 115.968 94.6353 116.095 94.2609 116.354C93.8905 116.609 93.6005 116.975 93.3909 117.453C93.1813 117.927 93.0742 118.489 93.0694 119.139C93.0646 119.805 93.1614 120.38 93.36 120.865C93.5586 121.35 93.8412 121.727 94.2078 121.995C94.5784 122.263 95.0153 122.399 95.5186 122.403C95.8554 122.405 96.161 122.346 96.4354 122.225C96.7137 122.101 96.9468 121.922 97.1348 121.69C97.3267 121.457 97.4616 121.177 97.5393 120.848L99.2691 120.861C99.2014 121.451 99.0053 121.977 98.6809 122.438C98.3565 122.899 97.9239 123.261 97.383 123.522C96.8461 123.784 96.217 123.912 95.4957 123.907ZM103.804 123.985C103.226 123.981 102.703 123.87 102.237 123.653C101.771 123.432 101.403 123.114 101.133 122.7C100.866 122.286 100.735 121.779 100.74 121.181C100.743 120.666 100.845 120.242 101.046 119.911C101.247 119.58 101.516 119.318 101.854 119.126C102.193 118.934 102.57 118.791 102.987 118.695C103.404 118.599 103.828 118.526 104.261 118.478C104.808 118.419 105.252 118.37 105.593 118.333C105.935 118.292 106.183 118.225 106.338 118.131C106.493 118.037 106.572 117.883 106.573 117.669L106.573 117.627C106.577 117.108 106.434 116.705 106.142 116.417C105.855 116.13 105.424 115.984 104.85 115.98C104.251 115.975 103.779 116.105 103.432 116.368C103.089 116.627 102.851 116.916 102.718 117.236L101.051 116.844C101.253 116.29 101.545 115.844 101.928 115.506C102.315 115.164 102.759 114.918 103.259 114.767C103.76 114.612 104.286 114.537 104.836 114.541C105.201 114.544 105.587 114.59 105.995 114.68C106.406 114.766 106.789 114.924 107.144 115.152C107.503 115.381 107.796 115.706 108.023 116.128C108.25 116.545 108.361 117.087 108.356 117.753L108.312 123.816L106.576 123.804L106.585 122.555L106.514 122.555C106.397 122.784 106.223 123.008 105.992 123.229C105.76 123.449 105.464 123.631 105.102 123.775C104.74 123.919 104.308 123.989 103.804 123.985ZM104.201 122.562C104.693 122.565 105.113 122.471 105.463 122.28C105.818 122.088 106.087 121.836 106.272 121.524C106.46 121.209 106.556 120.871 106.558 120.51L106.567 119.333C106.503 119.396 106.38 119.455 106.197 119.509C106.018 119.559 105.814 119.603 105.584 119.641C105.354 119.675 105.13 119.707 104.911 119.737C104.693 119.763 104.511 119.786 104.364 119.804C104.019 119.845 103.703 119.916 103.417 120.017C103.135 120.118 102.908 120.265 102.736 120.458C102.568 120.647 102.483 120.9 102.481 121.217C102.478 121.657 102.638 121.991 102.961 122.22C103.285 122.444 103.698 122.558 104.201 122.562ZM114.096 124.037C113.359 124.031 112.702 123.838 112.126 123.458C111.554 123.073 111.107 122.529 110.783 121.825C110.463 121.117 110.307 120.27 110.314 119.283C110.321 118.296 110.492 117.453 110.826 116.754C111.164 116.055 111.624 115.522 112.205 115.154C112.786 114.785 113.443 114.604 114.177 114.609C114.743 114.613 115.198 114.712 115.542 114.904C115.889 115.093 116.157 115.313 116.345 115.564C116.538 115.815 116.687 116.036 116.792 116.227L116.899 116.228L116.932 111.704L118.71 111.717L118.621 123.892L116.885 123.879L116.895 122.458L116.747 122.457C116.638 122.65 116.482 122.871 116.278 123.119C116.078 123.368 115.803 123.584 115.453 123.767C115.103 123.951 114.651 124.041 114.096 124.037ZM114.499 122.524C115.01 122.528 115.443 122.396 115.798 122.129C116.157 121.858 116.429 121.482 116.615 121C116.805 120.518 116.902 119.955 116.906 119.313C116.911 118.679 116.824 118.124 116.645 117.647C116.466 117.17 116.202 116.798 115.851 116.53C115.5 116.262 115.065 116.126 114.546 116.122C114.011 116.118 113.564 116.253 113.205 116.528C112.847 116.803 112.574 117.179 112.389 117.658C112.207 118.136 112.114 118.676 112.109 119.278C112.105 119.889 112.192 120.438 112.371 120.927C112.549 121.416 112.816 121.804 113.171 122.092C113.529 122.376 113.972 122.52 114.499 122.524ZM125.091 124.123C124.192 124.117 123.418 123.919 122.771 123.53C122.128 123.136 121.633 122.588 121.285 121.884C120.942 121.176 120.773 120.348 120.78 119.401C120.787 118.466 120.967 117.643 121.321 116.932C121.679 116.221 122.175 115.668 122.808 115.273C123.445 114.877 124.187 114.682 125.035 114.688C125.551 114.692 126.049 114.781 126.532 114.955C127.014 115.129 127.446 115.4 127.828 115.767C128.209 116.134 128.509 116.61 128.727 117.194C128.944 117.775 129.05 118.479 129.044 119.307L129.039 119.937L121.781 119.884L121.791 118.553L127.308 118.593C127.311 118.125 127.219 117.71 127.031 117.348C126.844 116.982 126.578 116.693 126.235 116.481C125.896 116.268 125.496 116.16 125.037 116.157C124.537 116.153 124.1 116.273 123.726 116.516C123.356 116.755 123.068 117.07 122.863 117.461C122.662 117.848 122.56 118.269 122.557 118.725L122.549 119.765C122.545 120.375 122.648 120.895 122.859 121.325C123.074 121.754 123.374 122.083 123.761 122.312C124.148 122.537 124.601 122.651 125.12 122.655C125.457 122.657 125.764 122.612 126.042 122.519C126.32 122.422 126.561 122.277 126.765 122.084C126.968 121.892 127.125 121.653 127.234 121.369L128.914 121.684C128.775 122.178 128.531 122.611 128.179 122.981C127.832 123.347 127.396 123.631 126.871 123.833C126.35 124.031 125.757 124.128 125.091 124.123ZM130.982 123.982L131.049 114.851L132.755 114.864L132.744 116.35L132.857 116.351C133.051 115.849 133.365 115.459 133.799 115.181C134.233 114.898 134.751 114.759 135.353 114.764C135.964 114.768 136.474 114.915 136.884 115.203C137.298 115.491 137.602 115.886 137.797 116.387L137.892 116.388C138.113 115.902 138.463 115.516 138.941 115.23C139.418 114.94 139.986 114.798 140.644 114.803C141.472 114.809 142.146 115.073 142.665 115.596C143.189 116.119 143.446 116.904 143.439 117.95L143.394 124.073L141.617 124.06L141.66 118.103C141.665 117.485 141.5 117.036 141.165 116.756C140.83 116.476 140.429 116.335 139.961 116.331C139.382 116.327 138.931 116.502 138.608 116.856C138.284 117.207 138.12 117.659 138.116 118.214L138.074 124.034L136.302 124.021L136.347 117.952C136.35 117.456 136.199 117.057 135.892 116.753C135.585 116.45 135.184 116.296 134.688 116.293C134.351 116.29 134.04 116.377 133.753 116.553C133.47 116.726 133.241 116.968 133.064 117.28C132.891 117.591 132.804 117.953 132.801 118.366L132.759 123.995L130.982 123.982ZM146.548 127.52C146.282 127.518 146.041 127.494 145.823 127.449C145.605 127.408 145.443 127.363 145.336 127.315L145.775 125.862C146.099 125.951 146.388 125.991 146.642 125.981C146.896 125.971 147.121 125.877 147.316 125.7C147.515 125.524 147.692 125.234 147.845 124.83L148.07 124.226L144.797 114.952L146.699 114.966L148.959 122.068L149.055 122.069L151.419 115L153.327 115.014L149.488 125.336C149.311 125.81 149.086 126.211 148.814 126.538C148.542 126.869 148.219 127.116 147.845 127.28C147.472 127.443 147.039 127.523 146.548 127.52Z" fill="black"/>
<defs>
<clipPath id="clip0_593_2">
<rect width="116.205" height="88.1916" fill="white" transform="translate(20 3.73022) rotate(-1.83953)"/>
</clipPath>
</defs>
</svg>
