<svg width="203" height="37" viewBox="0 0 203 37" fill="none" xmlns="http://www.w3.org/2000/svg">
<g clip-path="url(#clip0_1483_2)">
<path d="M10.8233 23.3214L0.0800697 23.2429L5.88632 12.0929" fill="#CC0202"/>
<path d="M16.7154 11.4456L5.87566 12.0943L10.8239 23.3229" fill="#AD0000"/>
<path d="M11.7865 0.671736L5.87583 12.0944L16.7155 11.4457" fill="#C93535"/>
<path d="M16.7151 11.4477L11.6949 0.673096L21.8912 0.747615" fill="#EC2027"/>
<path d="M26.7858 12.2466L16.7163 11.354L21.8918 0.745019" fill="#F70B0B"/>
<path d="M26.7849 12.2473L16.7155 11.3547L20.8112 22.1984" fill="#EB2329"/>
<path d="M26.5372 34.103L21.8424 22.5894L32.2688 23.253" fill="#AD0000"/>
<path d="M21.8936 22.4998L15.6787 33.4124L26.5825 34.1064" fill="#CC0202"/>
<path d="M21.8201 22.5874L32.269 23.2525L27.733 12.113L21.8201 22.5874Z" fill="#C93535"/>
<path d="M38.6769 11.8429L27.7153 12.0572L32.0922 23.5506" fill="#EC2027"/>
<path d="M27.8017 12.1176L38.5814 11.8918L34.346 1.04543L27.8017 12.1176Z" fill="#F70B0B"/>
<path d="M34.2545 1.04077L38.5693 12.0748L44.4314 1.68852L34.2545 1.04077Z" fill="#EB2329"/>
</g>
<path d="M53.0942 29.6236L48.6811 29.5914L55.5477 10.1619L60.8549 10.2007L67.4273 29.7284L63.0142 29.6961L58.2449 14.633L58.0927 14.6319L53.0942 29.6236ZM52.8743 21.9652L63.2984 22.0414L63.2749 25.2561L52.8508 25.18L52.8743 21.9652ZM69.7718 29.7455L69.9141 10.2669L77.599 10.3231C79.0701 10.3338 80.3236 10.6062 81.3596 11.14C82.402 11.6676 83.1924 12.4121 83.7307 13.3736C84.2754 14.3287 84.543 15.4498 84.5336 16.737C84.5242 18.0305 84.2371 19.1412 83.6723 20.0692C83.1075 20.9909 82.2939 21.6952 81.2314 22.182C80.1752 22.6689 78.8989 22.9068 77.4025 22.8959L72.2571 22.8583L72.2813 19.5485L76.7609 19.5812C77.5472 19.5869 78.2011 19.4839 78.7226 19.2721C79.2441 19.0604 79.6332 18.7398 79.89 18.3105C80.1531 17.8812 80.287 17.3464 80.2917 16.706C80.2964 16.0592 80.1704 15.513 79.9137 15.0672C79.6633 14.6215 79.2758 14.2826 78.7512 14.0505C78.233 13.8121 77.5776 13.69 76.785 13.6842L74.0078 13.6639L73.89 29.7756L69.7718 29.7455ZM80.3558 20.9581L85.1321 29.8578L80.5858 29.8245L75.9141 20.9256L80.3558 20.9581ZM85.5384 10.3811L90.1512 10.4148L94.5316 18.836L94.7218 18.8374L99.2247 10.4811L103.838 10.5149L96.6408 23.0555L96.5905 29.9415L92.5007 29.9116L92.5511 23.0256L85.5384 10.3811ZM118.118 10.6192L122.237 10.6493L122.144 23.299C122.134 24.7193 121.786 25.9596 121.099 27.0199C120.419 28.0802 119.472 28.9039 118.256 29.4911C117.041 30.0719 115.628 30.3565 114.017 30.3447C112.401 30.3329 110.989 30.0277 109.782 29.4292C108.575 28.8243 107.64 27.9868 106.975 26.9166C106.311 25.8465 105.984 24.6013 105.994 23.181L106.087 10.5313L110.205 10.5614L110.115 22.8591C110.11 23.601 110.267 24.2616 110.586 24.841C110.911 25.4204 111.371 25.8771 111.965 26.2112C112.558 26.5453 113.251 26.7152 114.044 26.721C114.843 26.7268 115.538 26.5671 116.13 26.2417C116.729 25.9163 117.192 25.4663 117.519 24.8917C117.853 24.3171 118.023 23.6588 118.028 22.917L118.118 10.6192Z" fill="white"/>
<path d="M129.248 30.2058L127.299 30.1916L131.769 18.0495L133.891 18.065L138.183 30.2711L136.233 30.2569L132.864 20.2689L132.769 20.2682L129.248 30.2058ZM129.61 25.4408L135.935 25.487L135.924 27.0326L129.599 26.9864L129.61 25.4408ZM143.496 30.4942C142.612 30.4878 141.853 30.2821 141.217 29.8772C140.586 29.4683 140.103 28.908 139.767 28.1961C139.432 27.4843 139.267 26.6706 139.274 25.7552C139.281 24.8279 139.461 24.0108 139.815 23.304C140.169 22.5932 140.664 22.04 141.301 21.6444C141.938 21.2487 142.687 21.0541 143.547 21.0604C144.24 21.0654 144.858 21.1987 145.399 21.4603C145.94 21.7179 146.375 22.0778 146.705 22.5399C147.038 23.0021 147.234 23.5405 147.293 24.1552L145.563 24.1426C145.471 23.7139 145.256 23.3437 144.918 23.0321C144.583 22.7206 144.132 22.5627 143.566 22.5586C143.07 22.5549 142.635 22.6826 142.261 22.9414C141.891 23.1963 141.601 23.5627 141.391 24.0407C141.181 24.5148 141.074 25.0768 141.069 25.7267C141.065 26.3925 141.161 26.9678 141.36 27.4528C141.559 27.9377 141.841 28.3143 142.208 28.5825C142.578 28.8508 143.015 28.9867 143.519 28.9904C143.855 28.9929 144.161 28.9337 144.435 28.8128C144.714 28.688 144.947 28.5094 145.135 28.277C145.327 28.0445 145.462 27.7641 145.539 27.4358L147.269 27.4484C147.201 28.0384 147.005 28.5641 146.681 29.0254C146.357 29.4867 145.924 29.8482 145.383 30.1097C144.846 30.3713 144.217 30.4995 143.496 30.4942ZM151.804 30.5728C151.226 30.5686 150.703 30.4577 150.237 30.2403C149.771 30.019 149.403 29.7012 149.133 29.287C148.866 28.8729 148.735 28.3667 148.74 27.7683C148.743 27.2531 148.846 26.8298 149.046 26.4983C149.247 26.1669 149.516 25.9053 149.854 25.7136C150.193 25.5219 150.57 25.378 150.987 25.282C151.404 25.1859 151.828 25.1138 152.261 25.0654C152.808 25.006 153.252 24.9577 153.593 24.9206C153.935 24.8795 154.183 24.8119 154.338 24.7179C154.493 24.624 154.572 24.47 154.573 24.256L154.574 24.2144C154.577 23.6952 154.434 23.2919 154.142 23.0044C153.855 22.717 153.424 22.5712 152.85 22.567C152.251 22.5626 151.779 22.6919 151.432 22.9549C151.089 23.214 150.851 23.5035 150.718 23.8236L149.051 23.4309C149.253 22.8776 149.545 22.4319 149.928 22.0938C150.315 21.7519 150.759 21.5054 151.259 21.3545C151.76 21.1997 152.286 21.1242 152.836 21.1283C153.201 21.1309 153.587 21.1773 153.995 21.2675C154.406 21.3537 154.789 21.5111 155.144 21.7396C155.503 21.9681 155.796 22.2933 156.023 22.715C156.25 23.1328 156.361 23.6746 156.356 24.3403L156.312 30.4036L154.576 30.3909L154.585 29.1426L154.514 29.1421C154.397 29.3711 154.223 29.5957 153.992 29.816C153.76 30.0362 153.464 30.2183 153.102 30.3623C152.74 30.5063 152.308 30.5765 151.804 30.5728ZM152.201 29.149C152.693 29.1526 153.113 29.0585 153.464 28.8669C153.818 28.6753 154.087 28.4236 154.272 28.1119C154.46 27.7962 154.556 27.4581 154.558 27.0974L154.567 25.9204C154.503 25.9834 154.38 26.0419 154.197 26.0961C154.018 26.1463 153.814 26.1904 153.584 26.2283C153.354 26.2623 153.13 26.2944 152.911 26.3245C152.693 26.3506 152.511 26.3731 152.364 26.3918C152.019 26.4329 151.703 26.5039 151.417 26.6048C151.135 26.7058 150.908 26.8528 150.736 27.0457C150.569 27.2347 150.483 27.4877 150.481 27.8048C150.478 28.2447 150.638 28.5787 150.961 28.807C151.285 29.0313 151.698 29.1453 152.201 29.149ZM162.096 30.6242C161.359 30.6188 160.702 30.4258 160.126 30.0451C159.555 29.6605 159.107 29.1162 158.783 28.4124C158.463 27.7046 158.307 26.8573 158.314 25.8706C158.321 24.8838 158.492 24.0409 158.826 23.3418C159.164 22.6428 159.624 22.1092 160.205 21.7409C160.786 21.3726 161.443 21.1912 162.177 21.1965C162.743 21.2007 163.198 21.2991 163.542 21.4918C163.889 21.6806 164.157 21.9006 164.345 22.1516C164.538 22.4027 164.687 22.6238 164.792 22.8148L164.899 22.8155L164.932 18.2919L166.71 18.3049L166.621 30.479L164.885 30.4663L164.895 29.0456L164.747 29.0445C164.638 29.2379 164.482 29.4587 164.278 29.7069C164.078 29.9551 163.803 30.171 163.453 30.3548C163.103 30.5385 162.651 30.6283 162.096 30.6242ZM162.499 29.1113C163.01 29.115 163.443 28.9834 163.798 28.7165C164.157 28.4457 164.429 28.0692 164.615 27.5871C164.805 27.1049 164.902 26.5429 164.906 25.9009C164.911 25.2668 164.824 24.7114 164.645 24.2345C164.466 23.7576 164.202 23.3851 163.851 23.117C163.5 22.8489 163.065 22.713 162.546 22.7092C162.011 22.7053 161.564 22.8407 161.205 23.1155C160.847 23.3903 160.575 23.7668 160.389 24.245C160.207 24.7232 160.114 25.2635 160.109 25.8658C160.105 26.4761 160.192 27.0257 160.371 27.5144C160.55 28.0032 160.816 28.3916 161.171 28.6795C161.529 28.9635 161.972 29.1074 162.499 29.1113ZM173.091 30.7105C172.192 30.704 171.418 30.5061 170.771 30.1169C170.128 29.7239 169.633 29.1753 169.285 28.4713C168.942 27.7633 168.773 26.9358 168.78 25.9887C168.787 25.0534 168.968 24.2304 169.321 23.5196C169.679 22.8089 170.175 22.2557 170.808 21.86C171.445 21.4644 172.187 21.2697 173.035 21.2759C173.551 21.2796 174.049 21.3685 174.532 21.5424C175.014 21.7164 175.446 21.987 175.828 22.3544C176.209 22.7218 176.509 23.1976 176.727 23.7818C176.944 24.362 177.05 25.0662 177.044 25.8945L177.04 26.5246L169.781 26.4716L169.791 25.14L175.308 25.1803C175.311 24.7127 175.219 24.2979 175.031 23.9359C174.844 23.5699 174.578 23.2806 174.235 23.0681C173.896 22.8555 173.496 22.7476 173.037 22.7442C172.537 22.7406 172.101 22.8602 171.726 23.1032C171.356 23.3423 171.068 23.6572 170.863 24.0481C170.662 24.435 170.56 24.8563 170.557 25.3121L170.549 26.3523C170.545 26.9626 170.648 27.4825 170.859 27.9121C171.074 28.3417 171.374 28.6708 171.761 28.8996C172.148 29.1243 172.601 29.2386 173.12 29.2424C173.457 29.2449 173.764 29.1996 174.042 29.1065C174.32 29.0094 174.561 28.8646 174.765 28.6718C174.968 28.4791 175.125 28.2405 175.234 27.956L176.914 28.2714C176.775 28.7658 176.531 29.198 176.179 29.5679C175.832 29.934 175.396 30.2181 174.871 30.4204C174.35 30.6187 173.757 30.7154 173.091 30.7105ZM178.982 30.5693L179.049 21.4387L180.755 21.4512L180.744 22.9373L180.857 22.9381C181.051 22.4362 181.365 22.0462 181.799 21.7679C182.233 21.4858 182.751 21.3469 183.353 21.3513C183.964 21.3557 184.474 21.5021 184.884 21.7905C185.298 22.0789 185.602 22.4734 185.797 22.9742L185.892 22.9749C186.113 22.4891 186.463 22.1032 186.941 21.8174C187.418 21.5276 187.986 21.3851 188.644 21.39C189.472 21.396 190.146 21.6605 190.665 22.1835C191.189 22.7065 191.446 23.4911 191.439 24.5373L191.394 30.66L189.617 30.647L189.66 24.6907C189.665 24.0725 189.5 23.6235 189.165 23.3436C188.83 23.0638 188.429 22.9221 187.961 22.9187C187.382 22.9145 186.931 23.0895 186.608 23.4438C186.284 23.7942 186.12 24.2468 186.116 24.8016L186.074 30.6211L184.302 30.6082L184.347 24.539C184.35 24.0436 184.199 23.6442 183.892 23.3408C183.585 23.0373 183.184 22.8838 182.688 22.8802C182.352 22.8777 182.04 22.9646 181.753 23.1408C181.471 23.3132 181.241 23.5552 181.064 23.867C180.892 24.1788 180.804 24.5408 180.801 24.953L180.76 30.5823L178.982 30.5693ZM194.548 34.1072C194.282 34.1053 194.041 34.0817 193.823 34.0365C193.605 33.9953 193.443 33.9505 193.337 33.9022L193.775 32.4489C194.099 32.5385 194.389 32.5783 194.642 32.5682C194.896 32.5582 195.121 32.4647 195.316 32.2878C195.515 32.1109 195.692 31.8209 195.846 31.4178L196.07 30.8131L192.797 21.5392L194.699 21.5531L196.96 28.6557L197.055 28.6564L199.419 21.5876L201.327 21.6015L197.489 31.9232C197.311 32.3975 197.086 32.7981 196.814 33.1251C196.542 33.456 196.219 33.7033 195.845 33.867C195.472 34.0307 195.039 34.1108 194.548 34.1072Z" fill="white"/>
<defs>
<clipPath id="clip0_1483_2">
<rect width="44.408" height="33.7025" fill="white" transform="translate(0.246307 0.587402) rotate(0.418737)"/>
</clipPath>
</defs>
</svg>
